<svg id="Layer_3" enable-background="new 0 0 64 64" height="512" viewBox="0 0 64 64" width="512" xmlns="http://www.w3.org/2000/svg"><g><path d="m28 16h27c3.866 0 7-3.134 7-7 0-3.866-3.134-7-7-7h-20c-3.866 0-7 3.134-7 7z" fill="#4d5d7a"/><path d="m35 2c-3.866 0-7 3.134-7 7v2.569c2.779.903 6.022 1.431 9.5 1.431 10.217 0 18.5-4.477 18.5-10 0-.315-.034-.626-.087-.934-.3-.039-.603-.066-.913-.066z" fill="#8892a0"/><path d="m36 50h-27c-3.866 0-7-3.134-7-7 0-3.866 3.134-7 7-7h20c3.866 0 7 3.134 7 7z" fill="#4d5d7a"/><path d="m29 36c3.866 0 7 3.134 7 7v2.569c-2.779.903-6.022 1.431-9.5 1.431-10.217 0-18.5-4.477-18.5-10 0-.315.034-.626.087-.934.3-.039.603-.066.913-.066z" fill="#8892a0"/><path d="m58 62v-4c0-3.314-2.686-6-6-6h-6c-3.314 0-6 2.686-6 6v4z" fill="#669e4f"/><path d="m46 60c4.783 0 8.777-2.857 9.762-6.671-1.03-.83-2.337-1.329-3.762-1.329h-6c-3.314 0-6 2.686-6 6v.288c1.673 1.07 3.746 1.712 6 1.712z" fill="#78b75b"/><path d="m46 52v1c0 1.657 1.343 3 3 3 1.657 0 3-1.343 3-3v-1" fill="#efbe9a"/><g fill="#78b75b"><path d="m56 43 6-2v4l-6-1"/><path d="m57 48 2 3 3-2-6.622-4.967"/><path d="m42 42h14v3h-14z"/></g><path d="m53 45h3c1.105 0 2 .895 2 2 0 1.105-.895 2-2 2h-3" fill="#db9b7c"/><path d="m45 45h-3c-1.105 0-2 .895-2 2 0 1.105.895 2 2 2h3" fill="#db9b7c"/><path d="m54 45v2c0 2.761-2.239 5-5 5-2.761 0-5-2.239-5.001-4.33l.001-2.67" fill="#efbe9a"/><path d="m42 42v-2c0-2.209 1.791-4 4-4h6c2.209 0 4 1.791 4 4v2" fill="#976947"/><path d="m6 28v-4c0-3.314 2.686-6 6-6h6c3.314 0 6 2.686 6 6v4z" fill="#669e4f"/><path d="m18 26c-4.783 0-8.777-2.857-9.762-6.671 1.03-.83 2.337-1.329 3.762-1.329h6c3.314 0 6 2.686 6 6v.288c-1.673 1.07-3.746 1.712-6 1.712z" fill="#78b75b"/><path d="m18 18v1c0 1.657-1.343 3-3 3-1.657 0-3-1.343-3-3v-1" fill="#efbe9a"/><path d="m8 9-6-2v4l6-1" fill="#78b75b"/><path d="m7 14-2 3-3-2 6.238-4.679" fill="#78b75b"/><path d="m8 8h14v3h-14z" fill="#78b75b" transform="matrix(-1 0 0 -1 30 19)"/><path d="m11 11h-3c-1.105 0-2 .895-2 2 0 1.105.895 2 2 2h3" fill="#db9b7c"/><path d="m19 11h3c1.105 0 2 .895 2 2 0 1.105-.895 2-2 2h-3" fill="#db9b7c"/><path d="m10 11v2c0 2.761 2.239 5 5 5 2.761 0 5-2.239 5.001-4.33l-.001-2.67" fill="#efbe9a"/><path d="m22 8v-2c0-2.209-1.791-4-4-4h-6c-2.209 0-4 1.791-4 4v2" fill="#976947"/><g><path d="m31 11h18v2h-18z" fill="#fff"/></g><g><path d="m37 7h12v2h-12z" fill="#fff"/></g><g><path d="m15 45h18v2h-18z" fill="#fff"/></g><g><path d="m15 41h12v2h-12z" fill="#fff"/></g><g><path d="m11 41h2v2h-2z" fill="#fff"/></g><g><path d="m7 41h2v2h-2z" fill="#fff"/></g><g><path d="m11 45h2v2h-2z" fill="#fff"/></g><g><path d="m7 45h2v2h-2z" fill="#fff"/></g><g><path d="m55 7h2v2h-2z" fill="#fff"/></g><g><path d="m51 7h2v2h-2z" fill="#fff"/></g><g><path d="m55 11h2v2h-2z" fill="#fff"/></g><g><path d="m51 11h2v2h-2z" fill="#fff"/></g></g></svg>