<svg xmlns="http://www.w3.org/2000/svg" xmlns:xlink="http://www.w3.org/1999/xlink" width="40" height="40" viewBox="0 0 40 40">
  <defs>
    <rect id="rect-1" width="40" height="40" x="0" y="0"/>
    <mask id="mask-2" maskContentUnits="userSpaceOnUse" maskUnits="userSpaceOnUse">
      <rect width="40" height="40" x="0" y="0" fill="black"/>
      <use fill="white" xlink:href="#rect-1"/>
    </mask>
  </defs>
  <g>
    <use fill="none" xlink:href="#rect-1"/>
    <g mask="url(#mask-2)">
      <path fill="rgb(0,0,0)" fill-rule="evenodd" d="M20.3449707.07623291l18.33276367 8.33312988c.29663086.13494873.48828125.4315796.48834229.75823975V30.0003662c0 .31500244-.17834473.60339356-.45996094.74499512l-18.33276367 9.16638183c-.11834717.05834961-.24499512.08831788-.37335205.08831788-.12835693 0-.25500488-.02996827-.37335205-.08831788l-18.3328247-9.16638183c-.28161622-.14160156-.45996095-.42999268-.45996095-.74499512V9.16766357c0-.32672119.19171143-.62335205.48834229-.75830078L19.65496826.07623291c.22003174-.10162354.47003174-.10162354.69000244 0zM20 38.23504639l17.49945068-8.74969483V9.7043457L20 1.74957275 2.50054932 9.7043457v19.78100586L20 38.2350464z"/>
      <path fill="rgb(0,0,0)" fill-rule="evenodd" d="M39.09104403 8.82261492c-.18999406-.41998688-.68161932-.60162183-1.1033249-.41334646L20 16.5857317 2.01220274 8.40934658c-.42334614-.18835349-.91333083-.00664041-1.1033249.41334646-.18999406.41998688-.00499984.91333083.41334647 1.1033249l18.33278647 8.33309896c.10999656.04999844.22663354.07499766.34498922.07499766.11835568 0 .23499266-.02499922.34498922-.07499766l18.33278647-8.33309896c.41826818-.19007219.6032624-.68341615.41326834-1.10340302z"/>
      <path fill="rgb(0,0,0)" fill-rule="evenodd" d="M20 16.66736977c-.45998563 0-.83333333.3733477-.83333333.83333333v21.66596357C19.16666667 39.62665229 19.54001437 40 20 40s.83333333-.3733477.83333333-.83333333V17.5007031c0-.45998562-.3733477-.83333333-.83333333-.83333333z"/>
      <path fill="rgb(0,0,0)" fill-rule="evenodd" d="M20 7.5010156c-1.44831412 0-2.49992188.7016187-2.49992188 1.66658854S18.55168588 10.83419268 20 10.83419268s2.49992188-.7016187 2.49992188-1.66658854c0-.96496985-1.05160776-1.66658855-2.49992188-1.66658855z"/>
      <path fill="rgb(0,0,0)" fill-rule="evenodd" d="M15.83348958 18.33403644c-.96661042 0-1.66658855 1.05160776-1.66658855 2.49992187 0 1.44831412.69997813 2.49992188 1.66658855 2.49992188s1.66658854-1.05160776 1.66658854-2.49992188c0-1.44831411-.69997812-2.49992187-1.66658854-2.49992187z"/>
      <path fill="rgb(0,0,0)" fill-rule="evenodd" d="M10.83364582 21.2872254c-.96661041 0-1.66658854 1.05160776-1.66658854 2.49992188 0 1.44831411.69997813 2.49992187 1.66658854 2.49992187.96661042 0 1.66658855-1.05160776 1.66658855-2.49992187 0-1.448236-.69997813-2.49992188-1.66658855-2.49992188z"/>
      <path fill="rgb(0,0,0)" fill-rule="evenodd" d="M5.83380207 24.1671354c-.96661042 0-1.66658855 1.05160776-1.66658855 2.49992188 0 1.44831411.69997813 2.49992188 1.66658855 2.49992188s1.66658854-1.05160777 1.66658854-2.49992188c0-1.448236-.69997812-2.49992188-1.66658854-2.49992188z"/>
      <path fill="rgb(0,0,0)" fill-rule="evenodd" d="M24.99984375 19.16729165c-.96661041 0-1.66658854 1.05160776-1.66658854 2.49992187 0 1.44831412.69997813 2.49992188 1.66658854 2.49992188.96661042 0 1.66658855-1.05160776 1.66658855-2.49992188 0-1.44823599-.69997813-2.49992187-1.66658855-2.49992187z"/>
      <path fill="rgb(0,0,0)" fill-rule="evenodd" d="M33.33294272 23.3338802c-.96661042 0-1.66658854 1.05160775-1.66658854 2.49992187 0 1.44831411.69997812 2.49992188 1.66658854 2.49992188s1.66658854-1.05160777 1.66658854-2.49992188c0-1.44831412-.69997812-2.49992188-1.66658854-2.49992188z"/>
    </g>
  </g>
</svg>
